# xmcd CD database file
#
# Track frame offsets:
#	150
#	19837
#	37622
#	58010
#	73757
#	99747
#	119730
#	144957
#	168225
#	184527
#	209907
#	235377
#	275252
#
# Disc length: 4440 seconds
#
# Revision: 0
# Processed by: cddbd v1.5PL3 Copyright (c) Steve Scherf et al.
# Submitted via: CDex 1.51
#
DISCID=bc11560d
DTITLE=安室奈美恵 - 181920 and Films
DYEAR=2004
DGENRE=JPop
TTITLE0=Body Feels EXIT
TTITLE1=TRY ME ~私を信じて~
TTITLE2=Chase the Chance
TTITLE3=太陽のSEASON
TTITLE4=You're my sunshine
TTITLE5=How to be a Girl
TTITLE6=SWEET 19 BLUES
TTITLE7=Dreaming I was dreaming
TTITLE8=STOP THE MUSIC
TTITLE9=a walk in the park
TTITLE10=Don't wanna cry
TTITLE11=CAN YOU CELEBRATE?
TTITLE12=@
EXTD=YEAR: 2004
EXTT0=
EXTT1=
EXTT2=
EXTT3=
EXTT4=
EXTT5=
EXTT6=
EXTT7=
EXTT8=
EXTT9=
EXTT10=
EXTT11=
EXTT12=
PLAYORDER=
